# xmcd
#
# Track frame offsets:
#	150
#	13907
#	29509
#	44560
#	57919
#	71096
#	89038
#	104985
#	116531
#	138856
#	156263
#	172471
#	192731
#
# Disc length: 2826 seconds
#
# Revision: 0
# Processed by: cddbd v1.4PL0 Copyright (c) Steve Scherf et al.
# Submitted via: EasyCDDAExtractor 4.6.9.1
#
DISCID=d20b080d
DTITLE=Diamond Rio - Stuff
DYEAR=2000
DGENRE=Country
TTITLE0=Stuff
TTITLE1=I'm Already Gone
TTITLE2=I Think I Love You
TTITLE3=Till The Heartache Is Gone
TTITLE4=I Could Do It With My Eyes Closed
TTITLE5=For The Love Of A Woman
TTITLE6=Here I Go Fallin'
TTITLE7=That's Just That
TTITLE8=Hearts Against The Wind
TTITLE9=You Make Me Feel
TTITLE10=One More Day With You
TTITLE11=Sweet Summer
TTITLE12=I'm Trying (Duet with Chely Wright)
EXTD=
EXTT0=
EXTT1=
EXTT2=
EXTT3=
EXTT4=
EXTT5=
EXTT6=
EXTT7=
EXTT8=
EXTT9=
EXTT10=
EXTT11=
EXTT12=
PLAYORDER=
